<svg width="100" height="94" fill="none" xmlns="http://www.w3.org/2000/svg"><path d="M29.373 2.141c-9.578 4.923-5.381 18.686 5.703 18.686 4.413 0 3.982 2.612-1.399 7.735-5.81 5.626-8.178 11.754-7.425 18.786.538 4.32.43 4.52-2.368 5.123-2.044.402-4.197-.1-6.564-1.406-4.197-2.411-7.21-2.612-11.192-.904C3.007 51.467.208 55.686.208 59c0 5.124 5.274 10.046 10.762 10.046 5.489 0 10.762-4.922 10.762-9.945 0-1.407.969-2.11 3.228-2.612 3.014-.603 3.767-.201 7.641 3.918 2.368 2.41 6.242 5.324 8.502 6.228 5.703 2.411 5.919 5.525.538 7.334-3.874 1.305-6.995 5.324-6.995 9.141 0 5.124 5.273 10.046 10.761 10.046 5.489 0 10.762-4.922 10.762-10.046 0-2.813-2.798-7.635-4.843-8.338-.86-.402-1.614-1.808-1.614-3.215 0-2.11.538-2.51 3.121-2.51 4.197 0 9.685-1.91 13.883-4.722l3.443-2.411 4.305 3.114c3.659 2.712 4.09 3.516 3.551 6.027-1.184 5.927 4.09 12.055 10.439 12.055 3.551 0 8.071-2.612 9.47-5.525 4.52-9.242-4.627-17.279-14.85-13.16-1.077.402-3.23-.502-5.812-2.612l-3.982-3.315 1.937-3.516c2.906-5.325 2.583-15.27-.646-21.297l-2.69-4.823 2.583-2.511c2.26-2.21 3.228-2.512 6.78-2.01C90.929 25.95 97.6 18.316 93.62 10.28c-.754-1.507-2.583-3.316-4.198-4.12-8.716-4.118-17.218 2.11-15.496 11.353.538 3.315.215 4.219-2.153 6.328l-2.69 2.412-5.166-2.512c-4.089-1.909-6.672-2.411-13.344-2.411-9.362.1-10.87-1.005-7.318-5.224 6.78-8.137-4.09-18.987-13.882-13.964zm9.577 4.621c1.184 1.106 2.153 2.914 2.153 4.019 0 2.612-3.66 6.027-6.457 6.027-2.798 0-6.457-3.415-6.457-6.027 0-1.105.968-2.913 2.152-4.019 1.184-1.105 3.121-2.009 4.305-2.009 1.184 0 3.12.904 4.304 2.01zm49.504 4.019c1.184 1.105 2.152 2.913 2.152 4.018s-.968 2.913-2.152 4.019c-1.184 1.105-3.121 2.009-4.305 2.009-1.183 0-3.12-.904-4.304-2.01-1.184-1.105-2.153-2.913-2.153-4.018s.969-2.913 2.153-4.018c1.183-1.105 3.12-2.01 4.304-2.01 1.184 0 3.121.905 4.305 2.01zM63.702 28.26c5.058 3.114 8.394 8.137 9.255 13.763.646 4.721-.753 11.251-3.228 14.164-1.292 1.708-1.722 1.708-6.457.201-2.69-.904-4.95-2.11-4.95-2.813 0-.602.968-2.813 2.152-4.922 2.26-4.019 2.905-11.653 1.076-14.768-1.4-2.41-7.103-5.023-10.977-5.023-2.045 0-4.305 1.005-6.35 2.914-2.582 2.511-3.12 3.717-3.12 8.036 0 3.215.86 6.53 2.152 8.84 1.184 2.11 2.152 4.32 2.152 4.923 0 .704-2.26 1.91-4.95 2.813-4.735 1.507-5.165 1.507-6.457-.2-1.83-2.11-3.659-7.937-3.659-11.252 0-7.836 6.78-16.877 14.206-18.987 5.703-1.607 14.528-.603 19.155 2.31zm-7.963 6.228c2.26 1.407 2.582 2.31 2.367 6.028-.215 2.41-.645 4.42-1.076 4.42-.538 0-.86.904-.86 1.909 0 1.105-.431 2.31-1.077 2.612-1.292.703-1.4 5.525-.215 7.132.43.703 2.69 1.909 4.95 2.813 4.95 1.909 4.412 3.014-2.798 4.722-4.197 1.105-6.134 1.105-10.224 0-7.317-1.708-7.855-2.813-2.905-4.722 2.26-.904 4.52-2.11 4.95-2.813 1.184-1.607 1.076-6.43-.215-7.132-.538-.302-1.076-1.507-1.076-2.612 0-1.005-.323-1.91-.754-1.91-.538 0-.968-2.008-1.183-4.42-.43-6.931 4.09-9.643 10.116-6.027zM15.275 54.983c1.184 1.105 2.152 2.913 2.152 4.018 0 2.612-3.659 6.028-6.457 6.028S4.513 61.613 4.513 59c0-2.612 3.66-6.027 6.457-6.027 1.184 0 3.121.904 4.305 2.009zm77.484 14.064c1.183 1.105 2.152 2.913 2.152 4.018 0 2.612-3.66 6.028-6.457 6.028-1.184 0-3.121-.904-4.305-2.01-1.183-1.104-2.152-2.912-2.152-4.018 0-1.105.969-2.913 2.152-4.018 1.184-1.105 3.121-2.01 4.305-2.01 1.184 0 3.12.905 4.305 2.01zM49.712 79.093c1.184 1.105 2.152 2.913 2.152 4.018s-.968 2.914-2.152 4.019c-1.184 1.105-3.12 2.009-4.305 2.009-2.797 0-6.456-3.416-6.456-6.028 0-1.105.968-2.913 2.152-4.018 1.184-1.105 3.12-2.01 4.304-2.01 1.184 0 3.121.905 4.305 2.01z" fill="#646464"/></svg>