<svg width="100" height="75" fill="none" xmlns="http://www.w3.org/2000/svg"><path d="M.71 1.252c-.3.734-.399 17.6-.3 37.505l.3 36.142h98.565V.52L50.19.205C11.363-.005 1.008.205.71 1.252zM95.79 37.71v33.524H4.194V4.186H95.79v33.523z" fill="#646464"/><path d="M48.997 11.52c0 .523-.797 1.047-1.693 1.152-1.095 0-1.294.314-.498.628.598.21 1.195 1.152 1.195 1.99 0 2.2 3.285 1.782 4.779-.628.995-1.78.995-2.095-.299-2.095-.796 0-1.493-.524-1.493-1.048 0-.628-.398-1.047-.996-1.047-.498 0-.995.419-.995 1.047zM36.75 15.186c-1.99 1.571-1.095 5.238 1.295 5.238 2.09 0 3.285-3.562 1.692-5.238-1.095-1.048-1.593-1.048-2.986 0zm23.397.104c-1.493 1.781-.298 5.134 2.091 5.239.896.104 1.693-.21 1.693-.629 0-.524.199-1.467.497-2.305.797-2.095-2.688-4.085-4.28-2.304zm-31.063 7.752c0 .524-.697 1.048-1.593 1.048-1.294 0-1.393.314-.398 1.571.598.838.996 1.886.697 2.305-.299.42.597.838 1.892.838 1.294 0 2.39-.314 2.39-.733 0-.314.198-1.257.497-2.095.299-.734-.398-1.99-1.494-2.724-1.194-.733-1.99-.838-1.99-.21zm39.626.42c-2.19 1.676-1.295 5.866 1.095 5.133 2.39-.629 4.679-4.505 2.688-4.505-.797 0-1.593-.419-1.792-.943-.1-.523-1.095-.419-1.991.315zM26.098 35.614c0 .524-.697 1.048-1.494 1.048-1.294 0-1.294.314-.299 2.095.697 1.152 1.992 2.095 2.788 2.095.797 0 2.09-.943 2.788-2.095.995-1.781.995-2.095-.299-2.095-.796 0-1.493-.524-1.493-1.048 0-.629-.398-1.048-.996-1.048-.498 0-.995.42-.995 1.048zm45.798 0c0 .524-.697 1.048-1.494 1.048-1.294 0-1.294.314-.299 2.095.698 1.152 1.992 2.095 2.788 2.095.797 0 2.091-.943 2.788-2.095.995-1.781.995-2.095-.299-2.095-.796 0-1.493-.524-1.493-1.048 0-.629-.398-1.048-.996-1.048-.498 0-.995.42-.995 1.048zM29.084 46.09c0 .524-.697 1.048-1.593 1.048-1.294 0-1.393.314-.398 1.571.598.838.896 1.886.598 2.41-.3.628.497.943 1.891.838 1.394 0 2.49-.42 2.49-.838 0-.315.198-1.258.497-2.096.299-.733-.398-1.99-1.494-2.723-1.194-.734-1.99-.838-1.99-.21zm39.526.419c-2.29 1.78-.996 5.343 1.991 5.447 1.195 0 1.991-.314 1.693-.838-.299-.523 0-1.571.597-2.409.996-1.257.896-1.572-.299-1.572-.796 0-1.692-.419-1.891-.942-.1-.524-1.095-.42-2.091.314zM36.85 54.89c-2.19 1.676-1.294 5.866 1.095 5.133 2.39-.628 4.68-4.505 2.688-4.505-.796 0-1.593-.419-1.792-.942-.1-.524-1.095-.42-1.99.314zm24.094-.419c0 .524-.697 1.048-1.494 1.048-1.194 0-1.294.314-.298 1.99 1.194 2.095 4.779 3.772 4.779 2.2 0-.524.199-1.467.497-2.305.3-.733-.398-1.99-1.493-2.723-1.195-.734-1.991-.838-1.991-.21zm-11.948 5.238c0 .523-.697 1.047-1.493 1.047-1.294 0-1.294.315-.299 2.096.697 1.152 1.992 2.095 2.788 2.095.797 0 2.09-.943 2.788-2.095.995-1.781.995-2.096-.299-2.096-.796 0-1.493-.523-1.493-1.047 0-.629-.399-1.048-.996-1.048-.498 0-.995.42-.995 1.048z" fill="#646464"/></svg>