<svg width="99" height="90" fill="none" xmlns="http://www.w3.org/2000/svg"><path d="M35.652 1.94c-1.285 1.242-1.977 3.152-1.977 5.732v3.822H18.842c-13.546 0-15.03.19-16.81 1.91C.155 15.22.056 16.558.056 47.8s.099 32.58 1.978 34.395c1.878 1.815 3.263 1.911 28.18 1.911 25.907 0 26.303 0 25.215-1.91-.989-1.816-2.274-1.912-26.005-2.103l-24.918-.286-.297-14.045-.297-14.14h27.39c25.71 0 27.39-.096 29.764-1.91l2.471-1.912-29.466-.19-29.565-.287v-31.53h89.981l.297 17.77c.198 16.338.395 17.962 2.175 19.491 1.978 1.72 1.978 1.624 1.978-17.962 0-25.414 1.384-23.598-18.788-23.598H65.316V7.672C65.316.984 63.34.03 49.496.03c-10.58 0-12.064.19-13.844 1.91zm25.511 5.923l.297 3.63H37.63V8.342c0-1.815.296-3.535.692-3.917.395-.287 5.636-.478 11.569-.383l10.976.287.296 3.535z" fill="#646464"/><path d="M46.529 37.767c-1.483 1.72-.989 4.3 1.285 5.637 3.362 2.102 7.219-2.58 4.648-5.637a3.912 3.912 0 00-5.933 0zM72.732 50.57c-.89 3.917-1.878 4.394-5.438 2.292-2.966-1.624-2.966-1.624-5.636.956s-2.67 2.58-.89 5.541c1.977 3.249 1.384 4.395-2.373 4.873-2.176.287-2.472.86-2.769 4.3-.297 3.725-.099 4.012 2.67 4.585 3.955.764 4.548 1.911 2.67 4.49-2.275 3.058-1.978 4.204 1.384 6.497 2.769 1.911 3.164 1.911 5.142.574 3.362-2.293 4.45-1.911 5.141 1.815.693 3.153.89 3.344 4.648 3.344 3.56 0 3.955-.287 4.548-2.866.792-3.822 1.681-4.3 5.241-2.293 2.868 1.72 2.967 1.72 5.834-.956l2.967-2.77-1.978-2.676c-2.373-3.248-1.879-4.299 2.175-5.159 2.769-.573 2.967-.86 2.67-4.586-.297-3.44-.593-4.013-2.769-4.3-3.757-.477-4.35-1.623-2.373-4.872 1.78-2.962 1.78-2.962-.89-5.541-2.67-2.58-2.67-2.58-5.735-.86-3.362 1.91-4.548 1.338-5.043-2.293-.296-2.102-.89-2.389-4.45-2.675-3.856-.287-4.152-.096-4.746 2.58zm5.933 3.726c.791 3.535 5.34 5.35 8.405 3.343 2.67-1.815 3.758-.86 1.681 1.434-2.472 2.58-.395 7.452 3.46 8.216 3.462.669 3.66 2.484.298 2.484-3.56 0-5.834 5.255-3.659 8.408 1.879 2.77.989 3.63-1.78 1.815-3.164-2.197-7.811-.382-8.602 3.249-.693 3.44-2.275 3.63-2.275.382 0-3.44-5.34-5.637-8.701-3.63-2.967 1.814-3.857.955-1.978-1.816 2.175-3.153-.099-8.408-3.658-8.408-3.461 0-3.066-1.624.494-2.388 1.977-.382 2.966-1.242 2.966-2.389 0-.955.396-2.102.99-2.388.592-.383.296-1.529-.594-2.962-2.077-2.962-1.187-3.917 1.879-2.007 3.362 2.102 8.602-.095 8.602-3.63 0-3.248 1.681-3.057 2.472.287z" fill="#646464"/><path d="M71.744 63.563c-3.956 3.726-2.67 9.937 2.57 11.943 3.264 1.338 6.131.573 8.8-2.198 4.352-4.394.495-12.133-5.932-12.133-1.879 0-3.955.86-5.438 2.388zm8.404 2.867c1.484 1.72.99 4.299-1.186 5.636-3.46 2.102-7.317-2.58-4.746-5.636a3.912 3.912 0 015.933 0z" fill="#646464"/></svg>