<svg width="100" height="89" fill="none" xmlns="http://www.w3.org/2000/svg"><path d="M27.895 2.61c-3.458 4.38-4.401 8.27-2.987 12.325.944 2.432.63 4.703-.786 6.649-1.886 2.756-2.2 2.919-3.144.324-.472-1.46-2.515-3.568-4.245-4.54C10.13 13.8 6.357 27.42 12.49 33.097c4.087 3.729 4.401 9.729.471 8.107C4.47 37.638-.403 39.26 1.012 45.421c1.1 4.054 7.86 9.568 11.634 9.568 1.73 0 2.987 1.135 2.987 2.432 0 1.46-1.415 2.433-3.616 2.433-2.044 0-5.03 1.46-6.76 3.405-2.987 3.406-2.83 3.406.943 6.649 2.987 2.594 5.345 3.08 10.533 2.27 8.175-1.135 10.062 1.297 4.56 5.676-4.874 3.892-5.188 7.135-1.101 9.567 4.56 2.433 8.804 1.946 12.892-1.46 2.83-2.27 4.559-2.756 7.546-1.62 2.358.972 4.402.972 5.345 0 .943-.974-1.1-2.758-5.817-5.19C17.52 68.286 12.803 42.665 29.94 23.205c8.175-9.243 9.276-13.784 5.188-19.783-2.83-4.379-4.087-4.379-7.232-.811zm4.245 10.38c-1.258 3.73-1.258 3.73-2.358.649-1.415-4.217-.157-8.108 1.887-6 .943.973 1.1 3.405.471 5.351zM17.677 25.638c.786 3.567-.158 5.351-2.201 4.054-1.887-1.136-1.887-7.135 0-7.135.786 0 1.729 1.459 2.2 3.08zM11.86 46.394c1.73 1.946 2.043 2.92.786 3.406-2.044.648-6.446-2.595-6.446-4.703 0-2.27 2.673-1.622 5.66 1.297zm6.13 19.946c.629.973-1.1 1.622-3.773 1.622s-4.874-.811-4.874-1.622c0-.973 1.73-1.621 3.773-1.621 2.201 0 4.402.648 4.874 1.621zm13.363 14.432c0 1.947-6.131 4.055-7.546 2.595-1.1-1.135 2.672-4.054 5.66-4.054.943 0 1.886.649 1.886 1.46zm33.959-77.35c-4.087 6-2.987 10.378 5.188 19.945 10.062 11.838 12.577 21.081 8.961 33.568-2.672 9.892-10.847 18.973-20.437 23.027-4.245 1.784-5.66 3.243-4.56 4.378.944.973 2.83.973 5.346 0 2.987-1.135 4.716-.649 7.546 1.622 4.088 3.405 8.332 3.892 12.891 1.46 3.93-2.271 3.773-5.676-.629-9.244-5.345-4.378-3.773-6.649 4.088-5.838 5.03.649 7.546 0 10.533-2.432 3.773-3.243 3.93-3.243.944-6.649-1.73-1.946-4.717-3.405-6.76-3.405-2.201 0-3.616-.973-3.616-2.433 0-1.297 1.257-2.432 2.987-2.432 3.773 0 10.533-5.514 11.633-9.568 1.415-6.162-3.458-7.783-11.79-4.216-4.088 1.622-3.774-4.378.314-8.108 3.616-3.405 4.087-10.216 1.1-14.432-1.729-2.433-2.83-2.595-5.345-1.298-1.73.973-3.773 3.081-4.245 4.54-.943 2.596-1.257 2.433-3.144-.323-1.415-1.946-1.73-4.217-.786-6.649 1.415-4.054.472-7.946-2.987-12.324-3.144-3.568-4.402-3.568-7.232.81zm5.66 10.54c-1.415 2.27-1.572 2.27-2.516-.81-1.415-4.703.472-8.271 2.516-4.541.786 1.621.786 3.73 0 5.351zM85.75 28.394c-.472 1.298-1.572 1.946-2.516 1.46-1.1-.649-.943-2.27.315-4.54 1.886-3.893 3.773-1.298 2.2 3.08zm8.49 16.54c0 2.109-3.616 5.19-6.132 5.19-1.73 0-1.572-.649.629-3.243 2.987-3.406 5.502-4.216 5.502-1.946zM91.094 66.34c0 .811-2.2 1.622-4.873 1.622s-4.402-.649-3.774-1.622c.472-.973 2.673-1.621 4.874-1.621 2.044 0 3.773.648 3.773 1.621zm-15.72 14.595c1.258.81 1.886 1.946 1.258 2.432-1.415 1.46-7.547-.648-7.547-2.595 0-1.945 3.302-1.783 6.289.163z" fill="#646464"/><path d="M45.818 37.638c-4.402 4.703-4.56 8.27-.315 7.135 2.673-.649 2.987.162 3.46 7.46.313 4.702 1.257 8.432 2.514 8.918 1.415.487 1.887-2.919 1.887-13.297 0-15.243-1.415-17.027-7.546-10.216z" fill="#646464"/></svg>