<svg width="100" height="102" fill="none" xmlns="http://www.w3.org/2000/svg"><path d="M.571 16.88v16.23l16.893-.42 16.755-.42.412-15.81.412-15.67H.571v16.09zM11.56 8.485c0 4.897 0 4.897 6.18 4.897s6.18 0 6.18-5.037c0-4.617.275-4.897 3.845-4.477 3.709.42 3.709.42 4.12 12.592l.413 12.313H3.319V3.587h4.12c3.845 0 4.12.42 4.12 4.897zm8.926-1.4c0 1.82-1.098 2.94-3.02 3.219-2.61.42-3.16-.14-3.16-3.218s.55-3.638 3.16-3.218c1.922.28 3.02 1.399 3.02 3.218z" fill="#646464"/><path d="M19.799 24.576c0 .699 1.922 1.399 4.12 1.399 2.335 0 4.12-.7 4.12-1.4 0-.839-1.785-1.399-4.12-1.399-2.198 0-4.12.56-4.12 1.4zm59.33-21.968c-3.296 1.54-10.438 14.552-8.515 15.251.687.28 3.983 4.337 7.416 9.094 3.434 4.898 6.867 8.815 7.554 8.815 1.51 0 9.888-10.354 12.36-14.97 5.906-11.753-6.73-24.206-18.815-18.19zm11.262 2.519c1.785.98 4.12 3.498 5.081 5.736 1.923 4.618.687 8.255-5.219 15.81-4.257 5.457-5.081 5.178-11.673-4.057-4.807-6.856-4.807-9.794.137-14.97 4.395-4.478 6.455-4.898 11.674-2.52z" fill="#646464"/><path d="M81.19 10.164c-2.06 1.959-.962 8.815 1.647 10.214 5.356 2.798 11.262-3.078 8.378-8.395-1.373-2.798-7.966-3.918-10.026-1.819zm7.278 4.617c0 1.82-.961 2.798-2.747 2.798-2.609 0-3.708-2.798-1.785-4.617 1.785-1.958 4.532-.84 4.532 1.82zM39.026 16.18c0 .7.687 1.4 1.374 1.4.824 0 1.373-.7 1.373-1.4 0-.84-.55-1.4-1.373-1.4a1.39 1.39 0 00-1.374 1.4zm6.18 0c-.412.7.138 1.4 1.236 1.4 1.237 0 2.198-.7 2.198-1.4 0-.84-.55-1.4-1.236-1.4-.824 0-1.786.56-2.198 1.4zm6.181 0c0 .7.686 1.4 1.373 1.4.824 0 1.373-.7 1.373-1.4 0-.84-.549-1.4-1.373-1.4-.687 0-1.373.56-1.373 1.4zm6.18 0c-.412.7.137 1.4 1.236 1.4 1.236 0 2.197-.7 2.197-1.4 0-.84-.549-1.4-1.236-1.4-.824 0-1.785.56-2.197 1.4zm6.18 0c0 .7.687 1.4 1.374 1.4.824 0 1.373-.7 1.373-1.4 0-.84-.55-1.4-1.373-1.4a1.39 1.39 0 00-1.374 1.4zm32.412 11.053c-.55.98-.687 2.1-.275 2.519 1.236 1.26 2.61-.56 1.923-2.519-.55-1.539-.824-1.539-1.648 0zm.55 7.136c0 .7.686 1.4 1.373 1.4.824 0 1.373-.7 1.373-1.4 0-.84-.55-1.4-1.373-1.4-.687 0-1.373.56-1.373 1.4zm-1.374 5.457c0 .84.687 1.819 1.374 2.239.824.42 1.373-.14 1.373-1.26 0-1.259-.55-2.238-1.373-2.238-.687 0-1.374.56-1.374 1.26zm-54.111 2.378c-1.511 1.399-2.198 4.757-2.198 9.794 0 10.353 1.648 13.152 7.691 13.152 2.61 0 7.28 1.259 10.163 2.798l5.494 2.798v-2.798c0-2.239.961-2.798 4.532-2.798 6.455 0 7.828-2.1 7.828-12.033 0-12.313-1.098-13.152-17.854-13.152-10.438 0-14.008.56-15.656 2.239zm29.253 2.518c.961 1.12 1.51 5.177 1.236 9.514l-.412 7.416-5.494.42c-3.021.28-5.905 1.119-6.317 1.958-.55.98-1.786.98-3.709-.14-1.51-.84-4.669-1.539-6.729-1.539-5.494 0-7.279-2.378-7.279-9.794 0-3.498.687-7.135 1.648-8.115 2.472-2.518 24.996-2.238 27.056.28z" fill="#646464"/><path d="M47.267 49.76c0 .839 4.12 1.398 9.613 1.398 5.494 0 9.614-.56 9.614-1.399 0-.84-4.12-1.4-9.614-1.4-5.493 0-9.613.56-9.613 1.4zm0 6.436c0 1.679 1.373 1.959 6.455 1.679 9.064-.56 9.613-3.918.549-3.918-5.356 0-7.004.56-7.004 2.239zm45.321-10.774c0 .84.687 1.819 1.374 2.238.824.42 1.373-.14 1.373-1.259 0-1.259-.55-2.238-1.373-2.238-.687 0-1.374.56-1.374 1.259zm-4.669 4.198c-.55.7-.275 1.679.412 2.098.686.56 1.648.28 2.06-.42.549-.699.274-1.678-.412-2.098-.687-.56-1.648-.28-2.06.42zm-54.936 1.399c-.549.979-.686 2.098-.274 2.518 1.236 1.26 2.61-.56 1.922-2.518-.549-1.54-.824-1.54-1.648 0zm43.125.839c0 1.12.686 2.099 1.373 2.099.824 0 1.373-.98 1.373-2.099 0-1.119-.549-2.098-1.373-2.098-.687 0-1.373.979-1.373 2.098zm6.317-.839c-.55.979-.686 2.098-.274 2.518 1.236 1.26 2.609-.56 1.922-2.518-.549-1.54-.824-1.54-1.648 0zm-55.759 2.378c0 1.12.686 1.68 1.373 1.26.824-.42 1.373-1.4 1.373-2.24 0-.699-.549-1.258-1.373-1.258-.687 0-1.373.98-1.373 2.238zm-5.494 3.358c0 .7.687 1.4 1.374 1.4.824 0 1.373-.7 1.373-1.4 0-.84-.55-1.399-1.373-1.399a1.39 1.39 0 00-1.374 1.4zm-3.296 4.058c-.55.7-.275 1.679.412 2.099.687.56 1.648.28 2.06-.42.55-.7.275-1.679-.412-2.099-.686-.56-1.648-.28-2.06.42zm-5.906 8.674c-.549 1.959-1.51 2.658-3.433 2.239-3.845-1.12-8.378 6.716-6.18 10.353 1.236 1.96 1.236 2.939 0 4.198C-.115 88.795 4.554 97.75 7.85 96.77c1.786-.42 2.884.14 3.296 2.099 1.1 4.057 12.086 3.918 13.185-.28.55-2.099 1.51-2.658 3.433-2.099 1.923.7 3.022-.14 4.12-2.658.962-1.959 2.61-3.917 3.709-4.337 3.021-1.26 2.472-3.358-.687-3.358-2.884 0-3.845-3.638-1.236-4.477.961-.28.687-2.239-.961-5.737-2.06-4.197-2.885-5.037-5.631-4.337-2.61.7-3.16.28-3.16-2.099 0-2.518-.823-2.938-5.63-2.938-4.532 0-5.768.56-6.318 2.938zm10.575 4.058c1.511 1.539 3.571 2.378 4.533 1.958 2.747-.979 3.845 2.659 2.335 7.696-.687 2.518-.687 4.617 0 5.037 1.922 1.259-.138 5.176-2.198 4.337-.961-.42-3.159.84-4.944 2.658-3.983 4.338-4.258 4.338-8.653.14-2.06-1.959-4.394-3.218-5.493-2.798-2.06.84-3.846-3.218-2.06-4.337 1.785-1.12 1.785-7.276-.137-7.976-1.923-.7 0-5.456 2.06-5.037 2.334.42 7.69-1.678 7.69-3.218 0-2.238 3.983-1.399 6.867 1.54z" fill="#646464"/><path d="M13.756 79.98c-2.61 2.519-2.747 3.918-.824 7.696 2.61 4.897 10.987 2.518 10.987-3.078 0-2.938-3.57-6.856-6.18-6.856-.962 0-2.884.98-3.983 2.239zm7.416 5.037c0 2.1-4.395 2.939-5.493.98-1.786-2.798 1.236-6.016 3.57-3.918 1.1.84 1.923 2.239 1.923 2.939zm58.506-6.015c-1.373 1.539-2.197 4.337-1.922 6.716.274 3.078-.412 4.477-3.708 6.715-3.983 2.799-6.455 9.095-3.571 9.095.824 0 1.51-.98 1.51-2.099 0-2.938 6.18-6.576 11.537-7.136 5.219-.42 13.184 3.918 13.184 7.136 0 1.119.687 2.099 1.511 2.099 2.884 0 .412-6.296-3.57-9.095-3.297-2.238-3.983-3.637-3.709-6.715.55-4.478-2.884-9.375-6.592-9.375-1.236 0-3.433 1.26-4.67 2.659zm7.417 2.238c2.61 3.218 1.099 6.996-2.747 6.996s-5.356-3.778-2.747-6.996c2.198-2.658 3.296-2.658 5.494 0zM40.4 87.536c0 .7.961 1.4 2.06 1.4 1.098 0 2.06-.7 2.06-1.4 0-.84-.962-1.4-2.06-1.4-1.099 0-2.06.56-2.06 1.4zm6.867 0c0 .7.686 1.4 1.373 1.4.824 0 1.373-.7 1.373-1.4 0-.84-.549-1.4-1.373-1.4-.687 0-1.373.56-1.373 1.4zm5.493 0c0 .7.961 1.4 2.06 1.4 1.099 0 2.06-.7 2.06-1.4 0-.84-.961-1.4-2.06-1.4-1.099 0-2.06.56-2.06 1.4zm6.867 0c0 .7.687 1.4 1.373 1.4.824 0 1.374-.7 1.374-1.4 0-.84-.55-1.4-1.374-1.4a1.39 1.39 0 00-1.373 1.4zm5.493 0c0 .7.962 1.4 2.06 1.4 1.1 0 2.06-.7 2.06-1.4 0-.84-.96-1.4-2.06-1.4-1.098 0-2.06.56-2.06 1.4z" fill="#646464"/></svg>