<svg xmlns="http://www.w3.org/2000/svg" version="1.0" width="760" height="749.333" viewBox="0 0 570 562"><g fill="#dedede"><path d="M279.2 6c-5.7.5-11.8 1.4-13.4 1.9-1.7.6-4.4 1.1-5.9 1.1s-3.1.4-3.4 1c-.3.5-1.6 1-2.7 1-1.2 0-3.8.5-5.7 1.1-9 2.9-12.8 4.1-15.1 5.1-1.4.6-3.4 1.4-4.5 1.8-6 2.3-23.5 11.3-23.5 12.1 0 .5-.5.9-1 .9-.6 0-5.8 3.3-11.6 7.2-5.8 4-12.9 8.8-15.7 10.7-2.9 1.8-5.4 3.7-5.7 4.1-.3.3-1.2.9-2 1.3s-6.9 4.5-13.5 9.2c-11.5 8.1-29.2 20.4-34 23.5-7.2 4.8-14.1 9.5-14.5 10-.3.4-2 1.5-3.7 2.5-1.8 1.1-3.3 2.3-3.3 2.7 0 .4-.4.8-.9.8-.6 0-9.9 6.2-20.8 13.8-23 15.9-30.9 21.3-33.2 22.7C40 143.6 8 166.3 8 166.9c0 .7 12.7 10 29.5 21.6 3.9 2.7 7.6 5.5 8.3 6.2.7.7 1.7 1.3 2.1 1.3.4 0 1.6.8 2.7 1.8 1 .9 3.2 2.6 4.8 3.7 1.6 1.1 3.9 2.7 5.1 3.5 1.2.8 4.1 2.8 6.5 4.5 2.4 1.6 5 3.4 5.9 4 .8.5 2.1 1.5 2.8 2.2 1.8 1.6 26.9 19.5 29.4 20.9 1.1.6 3 2.1 4.3 3.3 1.2 1.1 2.7 2.1 3.2 2.1.6 0 2.1 1.1 3.4 2.5 1.3 1.4 2.7 2.5 3.2 2.5.4 0 1.6.7 2.5 1.5 1 .8 11 7.9 22.3 15.9s21 14.9 21.5 15.4c.6.5 2.4 1.7 4 2.8 1.7 1 3.2 2.1 3.5 2.4.3.3 4 3 8.2 6 4.2 3 14.1 10 21.9 15.5 7.7 5.5 15.7 11.1 17.5 12.5 1.9 1.4 12.1 8.6 22.6 16 10.5 7.4 19.7 14.1 20.4 14.8.7.6 1.7 1.2 2.2 1.2.5 0 1.7 1 2.8 2.1 1 1.2 2.8 2.5 3.9 3s4 2.5 6.5 4.4c2.5 1.9 5.2 3.8 6 4.2.8.4 2.6 1.7 4 3s3 2.3 3.7 2.3c.6 0 1.3.4 1.5.8.3.8 19.4 14.9 22.9 16.8 1.1.6 3 2.1 4.3 3.3 1.2 1.1 2.7 2.1 3.3 2.1.5 0 1.8.9 2.8 2 2.5 2.7 4.5 2.5 8.5-1 1.9-1.6 3.8-2.9 4.2-3 .5 0 3.8-2.2 7.5-4.8 3.8-2.6 10.6-7.5 15.3-10.7 4.7-3.2 10.5-7.3 13-9 2.5-1.7 8.1-5.6 12.5-8.5 4.4-3 8.2-5.7 8.5-6 .3-.3 1.2-1 2.1-1.5 2.6-1.5 11.6-7.7 33.2-22.7 10.9-7.6 20.2-13.8 20.8-13.8.5 0 .9-.4.9-.8s1.5-1.6 3.3-2.7c1.7-1 3.7-2.3 4.2-2.7.6-.4 2.4-1.9 4.1-3.3 1.8-1.4 3.6-2.5 4.1-2.5.6 0 1.8-.9 2.8-2 1-1.1 2.2-2 2.7-2 .4 0 3.9-2.2 7.6-4.8 3.7-2.7 15.7-11.1 26.7-18.7 15.5-10.7 22.3-16.2 30.3-24.2 5.6-5.7 10.2-10.8 10.2-11.4 0-.5.8-1.9 1.8-3 1.9-2 6.8-11.3 9.6-18.3 2.5-6.1 4.6-17.4 4.6-24.6 0-6.9-2.8-19.6-5.7-25.8-15.4-33.7-59.3-55.8-110.3-55.6-13.5.1-28.9 1.7-37.4 4.1-2 .6-2-1 .4-9.2 4.8-16.8 3.8-32-3-47.1-2.5-5.3-10.8-17.5-14.3-20.8-16.3-15.4-38-26-64-31.1-9.6-1.9-38.3-2.7-52.5-1.5zm24.6 72.6c8.7 2.4 15.3 5.9 20.4 10.8 6.3 6 8.3 10.6 8.2 18.8 0 7.8-2.6 13.8-8.8 20.6-3.2 3.4-24.2 18.6-51 36.7-4.6 3.1-7 4.8-11.6 8-2.4 1.6-5 3.4-5.8 4-.9.5-9.2 6.3-18.5 12.8-9.4 6.5-17.9 12.3-18.9 12.8-1.5.8-2.7.3-6-2.3-2.3-1.8-4.9-3.8-5.9-4.3-2-1.2-8.2-5.5-13.2-9.2-2.1-1.5-12.3-8.8-22.8-16.2-15.2-10.7-18.7-13.6-17.8-14.7.9-1.1 11.3-8.4 20.4-14.4 8.5-5.6 19.7-13.3 20.9-14.5.8-.8 1.7-1.5 2-1.5.3 0 4.3-2.6 8.8-5.8 4.6-3.2 9-6.1 9.8-6.5.8-.4 3.3-2.1 5.5-3.8 3.5-2.6 7.5-5.4 17-11.9 1.2-.8 4.1-2.9 6.5-4.5 7.1-4.9 9.4-6.4 11-7.2.8-.3 2.6-1.4 4-2.3 1.4-.9 5-2.4 8-3.2 3-.9 7.1-2 9-2.6 5.7-1.6 22.5-1.4 28.8.4zM434.5 171c.3.5 1.6 1 2.7 1 3.7 0 13.2 5.3 17.8 9.9 6.6 6.7 7.5 9 7.4 19-.1 9.9-2.1 14.5-9.6 21.8-3.8 3.6-24.1 18.3-25.4 18.3-.5 0-7.4 5-8.4 6-.3.3-2.9 2.1-5.8 3.9-3 1.9-5.9 3.9-6.5 4.6-.7.6-1.9 1.4-2.7 1.8-.8.4-6.9 4.5-13.5 9.2-10.7 7.5-32.3 22.4-40.8 28.1l-3.2 2.1-11-7.9c-6-4.3-12.6-9-14.5-10.3-1.9-1.3-5.3-3.8-7.5-5.4-2.2-1.7-4.7-3.4-5.5-3.8-.8-.4-2.6-1.7-4-3s-3-2.3-3.7-2.3c-.6 0-1.3-.4-1.5-.8-.1-.5-4.2-3.6-9.1-6.9l-8.7-6.1 3.7-2.9c3.3-2.6 18-12.8 24.8-17.3 6.9-4.5 14.1-9.5 14.5-10 .3-.4 2-1.5 3.8-2.5 1.7-1.1 3.2-2.2 3.2-2.6 0-.4.8-.9 1.8-1.3.9-.3 7.8-4.8 15.2-10 34.7-24.4 40.5-27.9 53.5-32.4 4-1.3 32.2-1.5 33-.2z"/><path d="M6 273.4v55.3l11.2 7.8c6.2 4.3 11.7 8.2 12.3 8.7 3.1 2.7 13.3 10 15 10.9 1.1.5 4 2.5 6.5 4.4 2.5 1.9 5.2 3.8 6 4.2.8.4 2.1 1.3 2.8 2 .8.7 5.6 4.3 10.9 8.1 5.3 3.7 11.2 7.9 13.2 9.4s4.5 3.2 5.6 3.7c1.1.5 2.9 1.8 3.9 3 1.1 1.1 2.5 2.1 3.3 2.1.7 0 1.3.4 1.3.8s1.5 1.6 3.2 2.7c1.8 1 3.5 2.1 3.8 2.5.4.6 30.5 22 36.5 26 5.7 3.8 8.1 5.6 9.9 7.2 1.1 1 2.3 1.8 2.7 1.8.4 0 1.4.6 2.1 1.3 1.3 1.3 4.3 3.4 30.9 22.2 7.7 5.5 15.7 11.1 17.5 12.5 1.9 1.4 10.8 7.7 19.7 13.9 8.9 6.3 16.7 11.9 17.2 12.3.6.4 2.4 1.9 4.1 3.3 1.8 1.4 3.6 2.5 4.1 2.5.6 0 1.8 1 2.9 2.1 1 1.2 2.8 2.5 3.9 3s4 2.5 6.5 4.4c2.5 1.9 5.2 3.8 6 4.2.8.4 2 1.2 2.6 1.8.7.6 7.6 5.6 15.4 11.1 7.8 5.4 15.7 11.1 17.4 12.5 1.7 1.4 3.8 2.9 4.6 3.2.8.4 3.3 2.1 5.5 3.8 2.2 1.6 6.4 4.6 9.2 6.6l5.3 3.6 3.4-2.7c1.9-1.4 3.8-2.6 4.1-2.6.4 0 2.1-1.1 3.9-2.5 4.4-3.6 4.5-3.6 11.1-8 3.3-2.1 6.2-4.2 6.3-4.7.2-.4.8-.8 1.2-.8.5 0 9.8-6.2 20.7-13.8 20.7-14.3 28.1-19.4 36.7-25.1 2.8-1.8 5.3-3.8 5.4-4.2.2-.5.8-.9 1.4-.9.5 0 3.7-2 6.9-4.5 3.3-2.5 6.2-4.5 6.5-4.5.2 0 2.8-1.7 5.7-3.8 4.4-3.2 20.9-14.7 29.1-20.2 1.3-.8 4.2-2.9 6.6-4.5 6.1-4.2 8.3-5.7 11.9-8 1.7-1 3.1-2.3 3.1-2.7 0-.4.4-.8.9-.8.6 0 13-8.3 27.6-18.5 14.7-10.2 26.9-18.5 27.2-18.5.3 0 3-1.9 6.1-4.3 3.2-2.3 6.9-5 8.5-6l2.7-1.7v-54c0-29.7-.4-54-.8-54-.6 0-52.8 35.6-56.7 38.7-1.2 1-11.8 8.2-15.1 10.3-1.3.8-8.8 6-16.6 11.4-7.9 5.5-18.3 12.7-23.3 16-4.9 3.3-9.2 6.3-9.5 6.6-.3.3-2.6 2-5.2 3.8-2.7 1.8-6.9 4.6-9.5 6.4-2.7 1.8-4.9 3.6-5.1 4-.2.4-.8.8-1.2.8-.5 0-9.8 6.2-20.8 13.7-10.9 7.6-20.5 14.2-21.4 14.8-.8.5-3.4 2.3-5.8 4-2.4 1.6-5 3.4-5.9 4-2.4 1.5-8.5 5.8-9.1 6.5-.3.3-1.3.9-2.2 1.5-.9.5-7.5 5-14.7 9.9l-12.9 8.8-2.3-2.1c-1.3-1.1-2.6-2.1-3-2.1-.4 0-1.4-.6-2.1-1.3-1.3-1.2-16.1-11.9-30.9-22.2-4-2.8-7.7-5.5-8.3-6-.6-.6-3.7-2.8-7-5-3.2-2.2-7.1-4.9-8.6-6-1.5-1.1-10.3-7.4-19.5-14s-18.4-13.2-20.4-14.7-4.5-3.2-5.6-3.7c-1.1-.5-2.9-1.8-3.9-3-1.1-1.1-2.4-2.1-3.1-2.1-.7 0-2-.9-3-2s-2.2-2-2.7-2-2.1-1.1-3.6-2.5-3.2-2.5-3.9-2.5c-.7 0-1.3-.3-1.3-.8 0-.4-5.3-4.3-11.6-8.7-6.4-4.4-13.1-9.2-14.9-10.8-1.8-1.5-3.6-2.7-3.9-2.7-.4 0-1.9-1.1-3.4-2.5s-3.2-2.5-3.9-2.5c-.6 0-1.3-.4-1.5-.8-.3-.7-12.9-9.8-37.8-27.1-3.6-2.5-6.9-4.9-7.5-5.4-2.3-1.9-14.5-10.7-21-15.2-3.8-2.7-12.1-8.5-18.3-12.9-18.6-13.3-24.7-17.6-27-19.1-.9-.6-2.7-2-4.1-3.3-1.4-1.2-3.1-2.2-3.8-2.2-.6 0-1.3-.4-1.5-.8-.1-.5-6.3-5.1-13.6-10.3-18.8-13.2-19.6-13.8-20.4-13.8-.5-.1-.8 24.8-.8 55.3z"/></g></svg>